<svg width="27" height="27" viewBox="0 0 27 27" fill="none" xmlns="http://www.w3.org/2000/svg">
<path fill-rule="evenodd" clip-rule="evenodd" d="M23.1372 5.13697C23.2209 5.05329 23.2873 4.95395 23.3326 4.84462C23.3778 4.73529 23.4011 4.61811 23.4011 4.49977C23.4011 4.38143 23.3778 4.26425 23.3326 4.15492C23.2873 4.04559 23.2209 3.94625 23.1372 3.86257C23.0535 3.77889 22.9542 3.71251 22.8449 3.66723C22.7355 3.62194 22.6184 3.59863 22.5 3.59863C22.3817 3.59863 22.2645 3.62194 22.1552 3.66723C22.0458 3.71251 21.9465 3.77889 21.8628 3.86257L13.5 12.2272L5.13721 3.86257C5.05354 3.77889 4.95419 3.71251 4.84486 3.66723C4.73553 3.62194 4.61835 3.59863 4.50001 3.59863C4.38167 3.59863 4.26449 3.62194 4.15516 3.66723C4.04583 3.71251 3.94649 3.77889 3.86281 3.86257C3.77914 3.94625 3.71276 4.04559 3.66747 4.15492C3.62219 4.26425 3.59888 4.38143 3.59888 4.49977C3.59888 4.61811 3.62219 4.73529 3.66747 4.84462C3.71276 4.95395 3.77914 5.05329 3.86281 5.13697L12.2274 13.4998L3.86281 21.8626C3.69382 22.0316 3.59888 22.2608 3.59888 22.4998C3.59888 22.7388 3.69382 22.968 3.86281 23.137C4.03181 23.306 4.26102 23.4009 4.50001 23.4009C4.73901 23.4009 4.96822 23.306 5.13721 23.137L13.5 14.7724L21.8628 23.137C22.0318 23.306 22.261 23.4009 22.5 23.4009C22.739 23.4009 22.9682 23.306 23.1372 23.137C23.3062 22.968 23.4011 22.7388 23.4011 22.4998C23.4011 22.2608 23.3062 22.0316 23.1372 21.8626L14.7726 13.4998L23.1372 5.13697V5.13697Z" fill="black"/>
</svg>
