<svg width="36" height="24" viewBox="0 0 36 24" fill="none" xmlns="http://www.w3.org/2000/svg">
<path d="M34.6685 13.1998H1.06851C0.737306 13.1998 0.468506 12.931 0.468506 12.5998V11.3998C0.468506 11.0686 0.737306 10.7998 1.06851 10.7998H34.6685C34.9997 10.7998 35.2685 11.0686 35.2685 11.3998V12.5998C35.2685 12.931 34.9997 13.1998 34.6685 13.1998Z" fill="#212121"/>
<path d="M34.6682 2.4H17.2682C16.937 2.4 16.6682 2.1312 16.6682 1.8V0.6C16.6682 0.2688 16.937 0 17.2682 0H34.6682C34.9994 0 35.2682 0.2688 35.2682 0.6V1.8C35.2682 2.1312 34.9994 2.4 34.6682 2.4Z" fill="#212121"/>
<path d="M18.4685 24.0001H1.06851C0.737306 24.0001 0.468506 23.7313 0.468506 23.4001V22.2001C0.468506 21.8689 0.737306 21.6001 1.06851 21.6001H18.4685C18.7997 21.6001 19.0685 21.8689 19.0685 22.2001V23.4001C19.0685 23.7313 18.7997 24.0001 18.4685 24.0001Z" fill="#212121"/>
</svg>
